<svg xmlns="http://www.w3.org/2000/svg" viewBox="0 0 531 540" width="531" height="540" role="img" aria-label="Stack &amp; Language Mix" font-family="ui-sans-serif,-apple-system,Segoe UI,Helvetica,Arial,sans-serif"><text x="265.5" y="27" text-anchor="middle" font-size="15" font-weight="700" fill="#aa9bef">Stack &amp; Language Mix</text><g transform="translate(249.2,277.0)"><polygon points="0.0,-198.0 171.5,-99.0 171.5,99.0 0.0,198.0 -171.5,99.0 -171.5,-99.0" fill="none" stroke="#30363d" stroke-width="1" opacity="0.85"/><polygon points="0.0,-148.5 128.6,-74.2 128.6,74.2 0.0,148.5 -128.6,74.3 -128.6,-74.3" fill="none" stroke="#30363d" stroke-width="1" opacity="0.72"/><polygon points="0.0,-99.0 85.7,-49.5 85.7,49.5 0.0,99.0 -85.7,49.5 -85.7,-49.5" fill="none" stroke="#30363d" stroke-width="1" opacity="0.60"/><polygon points="0.0,-49.5 42.9,-24.8 42.9,24.7 0.0,49.5 -42.9,24.8 -42.9,-24.8" fill="none" stroke="#30363d" stroke-width="1" opacity="0.47"/><line x1="0" y1="0" x2="0.0" y2="-198.0" stroke="#21262d" stroke-width="1"/><line x1="0" y1="0" x2="171.5" y2="-99.0" stroke="#21262d" stroke-width="1"/><line x1="0" y1="0" x2="171.5" y2="99.0" stroke="#21262d" stroke-width="1"/><line x1="0" y1="0" x2="0.0" y2="198.0" stroke="#21262d" stroke-width="1"/><line x1="0" y1="0" x2="-171.5" y2="99.0" stroke="#21262d" stroke-width="1"/><line x1="0" y1="0" x2="-171.5" y2="-99.0" stroke="#21262d" stroke-width="1"/><g><polygon points="0.0,-178.2 150.9,-87.1 137.2,79.2 0.0,168.3 -128.6,74.3 -140.6,-81.2" fill="#aa9bef" fill-opacity="0.22" stroke="#22d3ee" stroke-width="2.5" stroke-linejoin="round"/><circle cx="0.0" cy="-178.2" r="4" fill="#ffb400" stroke="#22d3ee" stroke-width="1.5"/><circle cx="150.9" cy="-87.1" r="4" fill="#ffb400" stroke="#22d3ee" stroke-width="1.5"/><circle cx="137.2" cy="79.2" r="4" fill="#ffb400" stroke="#22d3ee" stroke-width="1.5"/><circle cx="0.0" cy="168.3" r="4" fill="#ffb400" stroke="#22d3ee" stroke-width="1.5"/><circle cx="-128.6" cy="74.3" r="4" fill="#ffb400" stroke="#22d3ee" stroke-width="1.5"/><circle cx="-140.6" cy="-81.2" r="4" fill="#ffb400" stroke="#22d3ee" stroke-width="1.5"/></g><text x="0.0" y="-223.0" text-anchor="middle" font-size="13" font-weight="600" fill="#c9d1d9">Kotlin</text><text x="188.8" y="-114.0" text-anchor="start" font-size="13" font-weight="600" fill="#c9d1d9">TypeScript</text><text x="188.8" y="123.0" text-anchor="start" font-size="13" font-weight="600" fill="#c9d1d9">Java</text><text x="0.0" y="232.0" text-anchor="middle" font-size="13" font-weight="600" fill="#c9d1d9">JavaScript</text><text x="-188.8" y="123.0" text-anchor="end" font-size="13" font-weight="600" fill="#c9d1d9">Python</text><text x="-188.8" y="-114.0" text-anchor="end" font-size="13" font-weight="600" fill="#c9d1d9">SQL</text></g></svg>