<svg xmlns="http://www.w3.org/2000/svg" viewBox="0 0 754 518" width="754" height="518" role="img" aria-label="Skill Radar" font-family="ui-sans-serif,-apple-system,Segoe UI,Helvetica,Arial,sans-serif"><text x="377.0" y="27" text-anchor="middle" font-size="15" font-weight="700" fill="#0891b2">Skill Radar</text><g transform="translate(385.7,277.0)"><polygon points="0.0,-198.0 154.8,-123.5 193.0,44.1 85.9,178.4 -85.9,178.4 -193.0,44.1 -154.8,-123.5" fill="none" stroke="#d0d7de" stroke-width="1" opacity="0.85"/><polygon points="0.0,-148.5 116.1,-92.6 144.8,33.0 64.4,133.8 -64.4,133.8 -144.8,33.0 -116.1,-92.6" fill="none" stroke="#d0d7de" stroke-width="1" opacity="0.72"/><polygon points="0.0,-99.0 77.4,-61.7 96.5,22.0 43.0,89.2 -43.0,89.2 -96.5,22.0 -77.4,-61.7" fill="none" stroke="#d0d7de" stroke-width="1" opacity="0.60"/><polygon points="0.0,-49.5 38.7,-30.9 48.3,11.0 21.5,44.6 -21.5,44.6 -48.3,11.0 -38.7,-30.9" fill="none" stroke="#d0d7de" stroke-width="1" opacity="0.47"/><line x1="0" y1="0" x2="0.0" y2="-198.0" stroke="#e6eaef" stroke-width="1"/><line x1="0" y1="0" x2="154.8" y2="-123.5" stroke="#e6eaef" stroke-width="1"/><line x1="0" y1="0" x2="193.0" y2="44.1" stroke="#e6eaef" stroke-width="1"/><line x1="0" y1="0" x2="85.9" y2="178.4" stroke="#e6eaef" stroke-width="1"/><line x1="0" y1="0" x2="-85.9" y2="178.4" stroke="#e6eaef" stroke-width="1"/><line x1="0" y1="0" x2="-193.0" y2="44.1" stroke="#e6eaef" stroke-width="1"/><line x1="0" y1="0" x2="-154.8" y2="-123.5" stroke="#e6eaef" stroke-width="1"/><g><polygon points="0.0,-178.2 136.2,-108.6 164.1,37.5 70.4,146.3 -72.2,149.8 -154.4,35.2 -131.6,-104.9" fill="#0891b2" fill-opacity="0.22" stroke="#7c3aed" stroke-width="2.5" stroke-linejoin="round"/><circle cx="0.0" cy="-178.2" r="4" fill="#d97706" stroke="#7c3aed" stroke-width="1.5"/><circle cx="136.2" cy="-108.6" r="4" fill="#d97706" stroke="#7c3aed" stroke-width="1.5"/><circle cx="164.1" cy="37.5" r="4" fill="#d97706" stroke="#7c3aed" stroke-width="1.5"/><circle cx="70.4" cy="146.3" r="4" fill="#d97706" stroke="#7c3aed" stroke-width="1.5"/><circle cx="-72.2" cy="149.8" r="4" fill="#d97706" stroke="#7c3aed" stroke-width="1.5"/><circle cx="-154.4" cy="35.2" r="4" fill="#d97706" stroke="#7c3aed" stroke-width="1.5"/><circle cx="-131.6" cy="-104.9" r="4" fill="#d97706" stroke="#7c3aed" stroke-width="1.5"/></g><text x="0.0" y="-223.0" text-anchor="middle" font-size="13" font-weight="600" fill="#1f2328">Android / Kotlin</text><text x="170.4" y="-140.9" text-anchor="start" font-size="13" font-weight="600" fill="#1f2328">React Native / Expo v56</text><text x="212.5" y="52.5" text-anchor="start" font-size="13" font-weight="600" fill="#1f2328">TypeScript</text><text x="94.6" y="210.4" text-anchor="start" font-size="13" font-weight="600" fill="#1f2328">Java / Mobile Architecture</text><text x="-94.6" y="210.4" text-anchor="end" font-size="13" font-weight="600" fill="#1f2328">Node.js &amp; APIs</text><text x="-212.5" y="52.5" text-anchor="end" font-size="13" font-weight="600" fill="#1f2328">PostgreSQL &amp; Neon DB</text><text x="-170.4" y="-140.9" text-anchor="end" font-size="13" font-weight="600" fill="#1f2328">AI Matching &amp; NLP</text></g></svg>